<svg id="Layer_1" data-name="Layer 1" xmlns="http://www.w3.org/2000/svg" viewBox="0 0 169.4 62.8"><defs><style>.cls-1{fill:#fff;}.cls-2{fill:#00994b;}.cls-3{fill:#fecb00;}.cls-4{fill:#014694;}.cls-5{fill:#e51d22;}.cls-6{fill:#020004;}</style></defs><title>SAT logo no slogan_no line</title><polygon class="cls-1" points="126.9 0 169.4 27.4 169.4 20.6 137.6 0 126.9 0"/><polygon class="cls-1" points="137.6 62.8 169.4 42.1 169.4 35.3 126.9 62.8 137.6 62.8"/><polygon class="cls-2" points="157.6 31.4 107.5 62.8 126.9 62.8 169.4 35.3 169.4 27.4 126.9 0 107.5 0 157.6 31.4"/><polygon class="cls-3" points="146.8 31.4 95.8 62.8 107.5 62.8 157.6 31.4 107.5 0 95.8 0 146.8 31.4"/><polygon class="cls-4" points="169.4 62.8 169.4 42.1 137.6 62.8 169.4 62.8"/><polygon class="cls-5" points="169.4 0 137.6 0 169.4 20.6 169.4 0"/><polygon class="cls-6" points="0 62.8 95.9 62.8 146.9 31.4 95.9 0 0 0 0 62.8"/><path class="cls-1" d="M104.2,28.3a4.9,4.9,0,0,0-2.7.1,5.75,5.75,0,0,0-2.8,2.3,4.19,4.19,0,0,1,.8-2.2,8,8,0,0,0-1.8.4l-.2.2a1.23,1.23,0,0,0-.4.8l-1.8,7.2a2.21,2.21,0,0,0,1.1.5,11.34,11.34,0,0,0,2-.5,1.26,1.26,0,0,1,.1-.8c.1-.4.1-.3.4-1.6a8.48,8.48,0,0,1,5.3-5.9c.3-.3.3-.5,0-.5m3.6-2.7.1.1a13.32,13.32,0,0,0,1.9-.5,2.23,2.23,0,0,0,.9-1,2.26,2.26,0,0,0-.2-1.3c-.1-.2-.3-.2-.5-.2s-.2,0-.4.2-1.1.4-1.3.5c-.8.2-1.2.9-1.1,1a2.93,2.93,0,0,1,.3,1c.2,0,.2.1.3.2M79,28.7a92.31,92.31,0,0,1,5-10.1s.3-.2.3.1c.1,1.4.1,4.8.6,8.3-2,.6-4,1.1-5.9,1.7m22.3-4.6a3,3,0,0,0,1.2-2.1c-1.2.7-.6-.2-5,1.2-.5.2-1.5.5-2.9.9l.1-.6c.5-4.6,3.7-5.8,5.8-6.8.5-.2.9-1.8-1.7-1.3-3.8.8-5.6,4.8-6.1,6.5L92.4,23c-.2.6-.3,1.3-.5,2-1.3.4-2.6.8-4.1,1.2-.7-6.7-.6-10.2-1.6-10.6-.3-.1-2-.6-2.9-.1s-5,7.9-8.4,14.5a38.74,38.74,0,0,0-5.6,1.9c-.8.5,1.4,2,2.4,2.1a8.67,8.67,0,0,0,1.3-.3,66.56,66.56,0,0,0-3.1,6.5c.8-.2,2.5.6,3.7-.1a3.88,3.88,0,0,0,1.7-2.4c.5-1.2,1.3-3.2,2.3-5.5,2.3-.7,5.1-1.7,7.8-2.6.7,3.8,1.3,7.4,3.4,9.4.2.2.9.6.7,0-1-3.6-1.1-7.1-1.5-10.3l3.3-1.1c-1,5.9.1,11.4,1.5,11.4.6,0,.6-.9.7-1.7.1-.6.2-3.2.3-3.8l.6-6.9c2.5-.8,4.2-1.4,4.3-1.4,1.1-.5,2.1-.9,2.6-1.1m21.3,3.2c-1.1.1-2.3,1.2-3.3,2.6V30c-.2.3-.3.5-.5.8-1.7,2.4-3.8,5.3-5.3,5.3-.6,0-1.1-1.2-.6-2.6,1.6-4.6,5.6-5.4,5.2-6a6.83,6.83,0,0,0-5.7,1.5c-2.9,2.1-6.1,6.1-6.3,5.9-.7-1.3,2.2-4.7,3.5-7.3h-1.1a9.09,9.09,0,0,0-2.5.6s-2.4,3.5-2.7,5.1c-.3,1.8,0,3.8,1.2,3.8,1.7,0,3.8-2.9,5.5-5a1.93,1.93,0,0,0-.3,1c-.5,2.2-.1,4.9,3.2,4.9,1.5,0,3.2-1.9,4.8-4-.3,1.6,0,2.8,1.4,2.7a5.93,5.93,0,0,0,4-2c.8,2.5,2.6,1.7,2.6,1.7a5.62,5.62,0,0,1-.6-2.7,20.91,20.91,0,0,1,.9-5.2,3.55,3.55,0,0,0,.2-1c-1.6-.1-2.6-.2-3.6-.2m-.3,5.5a7.2,7.2,0,0,1-2.3,2.3c-.2-.9,1.1-3.7,1.9-4.9a2.7,2.7,0,0,1,1.1-1.1c.9.3-.2,2.9-.7,3.7M11.6,30c2.4-.1,5.3-1.6,5,1.6A7.53,7.53,0,0,1,14.9,35c-1.1,1.4-4.6,6.1-4.9,6.7s.4.4.6.7c5.1-3.7,8.6-8.6,12.8-12-.2,1.4-2.8,6.4,1.1,6.3a5.6,5.6,0,0,0,4.9-4.1,19.09,19.09,0,0,0,.5-4.8c-2.1.3-2.6-.5-3.8-.5-2.2.1-4.1,3.2-6.6,5.6a4.39,4.39,0,0,0,.7-2.2c.2-2.8-3.4-3.1-5.1-3.1a18.75,18.75,0,0,1-3.4.1c-.1-.1,0-.2.2-.7.8-2,7-9.9,8.1-10.9.1-.1-.3-.4-.6-.6a3.3,3.3,0,0,0-3.9.1c-3.4,3.5-6.2,6.8-7.2,9.4-1,3-.5,5.1,3.3,5m14.6,1c.3-.7.5-.5.7-.9.8.2.5,2.6.2,3.3a7,7,0,0,1-1.5,2c-.4-.8.1-3.3.6-4.4m36-.6c-1.1-2.1-5.8,2.1-6.2,2.6.5-2,1.2-4.2,1.8-6a53.16,53.16,0,0,1,3.3-8.3c.4-.7.4-1.4-.1-1.7a1.69,1.69,0,0,0-.5-.2c-.7,0-1.2.4-1.9.5l-2.9,6.9c-1.7.5-3.6,1-4,1.1.2-1.3,3.2-4.5.3-4.1-.7.1-.4.3-1.3.4-1.1,1.5-1.5,3.5-2.4,5.4-.2.5-2.4,1.7-3.8,1.9a2.41,2.41,0,0,0,2,.3c.5-.1.5,0,.5.2s-.1.4-.2.6c-.8,2.4-3.8,4.5-4.4,4.9-.6-1.8,1.7-6.8-1.1-6.7-3.9.1-6.3,6.5-8.2,8-.9-1.6,2.2-5.9,3.8-9.2H35.4a7.14,7.14,0,0,0-2.7.8,52.3,52.3,0,0,0-2.6,6.4c-.2.9,0,4.2,1.4,4.1,2.9-.1,6.5-6.7,7.7-8.1,0,2-1.3,5.9,1.7,5.8,1.7,0,3.8-2.2,5.3-3-.2,1.8-.6,5.3,1.8,6.3a21.08,21.08,0,0,1,.7-5.4,24.52,24.52,0,0,1,2.6-6.2,29,29,0,0,1,3.9-2.2,10.15,10.15,0,0,1-.6,2.5c-.6,2.8-2.2,7.6-2.3,10.1v.8l.8-.2c3-.9,4.4-5.9,6.4-6.1.8,1.3,1,5.2,3.1,5.1h1.2c.4-2.2-.6-5.2-1.6-7.3"/></svg>